<svg xmlns="http://www.w3.org/2000/svg" height="512pt" version="1.1" viewBox="0 -1 512.00048 512" width="512pt">
<g id="surface1">
<path d="M 296.234375 356.605469 L 298.753906 358.574219 L 300.558594 355.933594 C 302.515625 353.066406 304.433594 350.140625 306.292969 347.3125 L 307.421875 345.59375 C 308.453125 344.023438 309.5 342.433594 310.558594 340.84375 L 313.78125 335.992188 L 307.960938 336.183594 C 305.875 336.25 303.796875 336.300781 301.75 336.347656 L 301.289062 336.359375 C 298.347656 336.4375 295.390625 336.515625 292.410156 336.613281 L 289.972656 336.695312 L 289.554688 339.097656 C 288.429688 345.574219 291.113281 352.609375 296.234375 356.605469 Z M 296.234375 356.605469 " style=" stroke:none;fill-rule:nonzero;fill:rgb(35.686275%,36.470588%,42.745098%);fill-opacity:1;" />
<path d="M 384.464844 9.582031 L 375.941406 9.226562 C 371.378906 9.027344 366.835938 8.835938 362.285156 8.644531 L 361.019531 8.589844 L 283.023438 82.371094 L 310.421875 83.125 Z M 384.464844 9.582031 " style=" stroke:none;fill-rule:nonzero;fill:rgb(94.117647%,94.901961%,98.039216%);fill-opacity:1;" />
<path d="M 31.820312 11.4375 L 30.613281 10.257812 L 28.976562 10.675781 C 24.675781 11.773438 21.34375 13.484375 18.789062 15.902344 L 16.648438 17.925781 L 18.628906 20.101562 C 71.414062 78.0625 130.875 130.011719 195.363281 174.511719 L 197.304688 175.851562 L 226.40625 149.835938 C 226.457031 149.789062 226.53125 149.757812 226.625 149.738281 L 228.921875 149.261719 L 229.667969 130.683594 L 200.886719 156.046875 C 141.59375 111.890625 84.710938 63.238281 31.820312 11.4375 Z M 31.820312 11.4375 " style=" stroke:none;fill-rule:nonzero;fill:rgb(94.117647%,94.901961%,98.039216%);fill-opacity:1;" />
<path d="M 225.769531 228.390625 L 228.929688 149.015625 L 197.710938 176.925781 C 197.609375 177.015625 197.488281 177.0625 197.351562 177.0625 C 197.234375 177.0625 197.144531 177.035156 197.046875 176.96875 C 179.621094 165.011719 162.121094 152.171875 145.039062 138.808594 L 142.882812 137.121094 L 141.003906 139.117188 C 112.160156 169.792969 81.355469 199.398438 49.445312 227.105469 L 42.371094 233.25 L 51.695312 232.359375 C 89.53125 228.746094 128.050781 226.914062 166.183594 226.914062 C 185.015625 226.914062 204.046875 227.363281 222.75 228.25 Z M 225.769531 228.390625 " style=" stroke:none;fill-rule:nonzero;fill:rgb(84.705882%,87.058824%,92.54902%);fill-opacity:1;" />
<path d="M 79.742188 443.230469 L 79.6875 443.253906 L 79.914062 443.859375 L 80.261719 445.144531 L 80.378906 445.09375 L 80.695312 445.921875 C 83.824219 454.210938 89.511719 461.589844 96.730469 466.710938 C 96.753906 466.726562 96.8125 466.785156 96.867188 466.902344 L 98.144531 469.550781 L 226.085938 411.078125 C 239.851562 404.796875 254.085938 398.300781 267.226562 389.84375 L 270.542969 387.707031 L 267.59375 385.082031 C 265.050781 382.816406 263.246094 379.917969 262.378906 376.703125 C 261.691406 374.144531 261.609375 371.398438 262.140625 368.765625 L 263.285156 363.113281 L 259.492188 364.769531 L 256.234375 363.027344 C 253.21875 361.414062 250.949219 358.742188 250.003906 355.699219 C 248.96875 352.371094 248.707031 348.78125 249.292969 345.847656 L 250.230469 341.136719 L 245.585938 342.359375 C 238.328125 344.269531 230.738281 346.726562 222.375 349.863281 L 222.046875 349.988281 L 221.753906 350.183594 C 221.675781 350.234375 221.605469 350.261719 221.511719 350.273438 L 221.152344 350.320312 L 220.8125 350.449219 C 210.5625 354.359375 200.445312 358.78125 190.667969 363.0625 L 190.28125 363.230469 C 154.625 378.851562 117.75 395.003906 82.027344 412.941406 L 80.964844 413.472656 L 80.558594 414.585938 C 77.378906 423.222656 76.953125 432.882812 79.355469 441.78125 Z M 79.742188 443.230469 " style=" stroke:none;fill-rule:nonzero;fill:rgb(35.686275%,81.568627%,98.823529%);fill-opacity:1;" />
<path d="M 310.554688 84.453125 C 310.425781 84.507812 310.351562 84.511719 310.328125 84.511719 C 310.292969 84.511719 310.21875 84.496094 310.132812 84.457031 L 309.550781 84.171875 L 260.199219 82.804688 C 259.132812 82.773438 258.058594 82.753906 256.984375 82.753906 C 249.597656 82.753906 239.246094 83.617188 234.628906 91.089844 C 232.15625 95.078125 231.957031 100.078125 231.78125 104.503906 L 222.035156 348.808594 L 226.222656 347.308594 C 234.914062 344.1875 242.839844 341.8125 250.449219 340.042969 C 251.410156 339.820312 252.371094 339.609375 253.339844 339.414062 L 253.667969 339.347656 L 253.972656 339.210938 C 254.066406 339.167969 254.15625 339.121094 254.25 339.070312 C 254.277344 339.066406 254.3125 339.0625 254.355469 339.0625 L 254.460938 339.070312 L 254.878906 339.105469 L 255.289062 339.027344 C 270.554688 336.074219 286.285156 335.675781 301.496094 335.289062 C 305.824219 335.179688 310.421875 335.0625 314.871094 334.890625 C 315.085938 334.890625 315.273438 334.996094 315.371094 335.171875 C 315.460938 335.339844 315.449219 335.558594 315.328125 335.730469 C 312.640625 339.59375 309.9375 343.699219 307.382812 347.601562 C 298.542969 361.070312 289.40625 375 276.320312 384.832031 C 261.0625 396.289062 243.511719 404.304688 226.535156 412.054688 L 216.460938 416.664062 L 218.066406 494.722656 L 220.554688 495.105469 C 267.816406 502.398438 316.035156 506.09375 363.871094 506.09375 C 398.644531 506.09375 433.789062 504.136719 468.335938 500.273438 C 475.71875 499.441406 483.960938 498.066406 488.359375 492.203125 C 491.511719 488.003906 491.988281 482.496094 492.25 476.253906 L 507.910156 89.699219 L 311.140625 84.214844 Z M 378.511719 195.070312 C 379.164062 189.304688 383.027344 184.273438 388.125 181.730469 C 383.261719 185.453125 379.839844 190.964844 378.800781 197.039062 L 378.71875 196.78125 L 378.351562 197.484375 C 378.386719 196.679688 378.425781 195.851562 378.511719 195.070312 Z M 359.117188 183.890625 L 359.40625 184.957031 C 356.78125 188.964844 354.511719 193.214844 352.65625 197.605469 L 352.617188 197.695312 L 351.796875 200.054688 L 349.917969 199.054688 C 353.324219 194.222656 356.40625 189.136719 359.117188 183.890625 Z M 359.117188 183.890625 " style=" stroke:none;fill-rule:nonzero;fill:rgb(100%,100%,100%);fill-opacity:1;" />
<path d="M 199.046875 157.117188 L 201 158.570312 L 227.734375 134.992188 L 229.492188 134.992188 L 230.707031 104.433594 C 230.894531 99.898438 231.101562 94.757812 233.710938 90.527344 C 236.253906 86.414062 241.277344 81.695312 257.695312 81.695312 C 258.507812 81.695312 259.351562 81.707031 260.214844 81.730469 L 285.800781 82.445312 L 363.75 8.699219 L 356.65625 8.40625 C 305.140625 6.261719 244.410156 4.066406 184.574219 4.066406 C 132.472656 4.066406 85.515625 5.679688 41.019531 9 C 39.109375 9.140625 36.605469 9.351562 34.148438 9.691406 L 28.082031 10.53125 L 32.464844 14.808594 C 84.632812 65.726562 140.675781 113.605469 199.046875 157.117188 Z M 199.046875 157.117188 " style=" stroke:none;fill-rule:nonzero;fill:rgb(100%,100%,100%);fill-opacity:1;" />
<path d="M 311.898438 83.167969 L 353.515625 84.324219 L 354.421875 63.992188 L 380.699219 48.351562 L 382.632812 47.710938 L 383.753906 11.804688 L 355.5 39.859375 L 355.5 39.855469 Z M 311.898438 83.167969 " style=" stroke:none;fill-rule:nonzero;fill:rgb(100%,100%,100%);fill-opacity:1;" />
<path d="M 224.667969 237.125 L 225.449219 236.34375 L 225.84375 226.425781 L 222.871094 226.285156 C 214.25 225.878906 205.226562 225.558594 196.042969 225.332031 L 194.558594 225.296875 L 193.628906 226.453125 C 193.554688 226.546875 193.484375 226.640625 193.421875 226.734375 L 166.792969 259.835938 L 207.722656 259.75 Z M 224.667969 237.125 " style=" stroke:none;fill-rule:nonzero;fill:rgb(100%,100%,100%);fill-opacity:1;" />
<path d="M 153.289062 225.023438 C 142.792969 225.132812 132.273438 225.378906 122.019531 225.753906 L 120.085938 225.824219 L 119.402344 227.496094 L 89.949219 260.007812 L 133.953125 259.90625 L 159.238281 224.957031 Z M 153.289062 225.023438 " style=" stroke:none;fill-rule:nonzero;fill:rgb(100%,100%,100%);fill-opacity:1;" />
<path d="M 77.628906 228.199219 C 67.320312 228.957031 56.605469 229.890625 45.78125 230.976562 L 44.839844 231.070312 L 44.125 231.683594 C 35.382812 239.183594 26.730469 246.410156 18.40625 253.171875 L 15.15625 255.816406 L 18.703125 258.042969 C 21.789062 259.980469 25.941406 260.140625 29.929688 260.140625 L 29.933594 260.140625 L 54.683594 260.089844 L 85.335938 227.636719 Z M 77.628906 228.199219 " style=" stroke:none;fill-rule:nonzero;fill:rgb(100%,100%,100%);fill-opacity:1;" />
<path d="M 37.507812 185.527344 L 38.332031 227.9375 L 38.839844 228.460938 L 38.273438 235.296875 L 43.824219 230.527344 C 77.414062 201.664062 109.703125 170.8125 139.792969 138.839844 L 142.03125 136.460938 L 139.472656 134.433594 C 104.542969 106.722656 71.0625 76.410156 39.960938 44.34375 L 36.667969 40.945312 L 36.621094 38.628906 L 35.371094 39.609375 L 34.660156 38.878906 L 34.6875 40.148438 L 12.070312 57.890625 L 12.238281 84.566406 L 35.210938 67.226562 L 35.6875 91.605469 L 12.410156 110.796875 L 12.621094 144.515625 L 36.316406 123.9375 L 36.816406 149.722656 L 12.800781 171.605469 L 13.046875 209.464844 L 37.476562 185.535156 Z M 37.507812 185.527344 " style=" stroke:none;fill-rule:nonzero;fill:rgb(100%,100%,100%);fill-opacity:1;" />
<path d="M 263.414062 376.410156 C 264.40625 380.097656 266.824219 383.457031 270.054688 385.632812 L 271.789062 386.796875 L 273.644531 385.460938 C 274.328125 384.964844 275.007812 384.476562 275.671875 383.972656 C 285.492188 376.601562 292.894531 366.90625 298.246094 359.285156 L 299.910156 356.917969 L 297.601562 355.171875 C 293.082031 351.75 290.640625 345.851562 291.375 340.136719 L 291.828125 336.613281 L 288.28125 336.753906 C 278.882812 337.125 266.554688 337.859375 254.574219 340.25 L 253.9375 340.378906 L 253.410156 340.753906 C 248.925781 343.972656 249.890625 351.730469 251.027344 355.382812 C 252.46875 360.027344 257.34375 363.53125 262.367188 363.53125 C 263.0625 363.53125 263.75 363.46875 264.414062 363.332031 C 264.449219 363.328125 264.484375 363.324219 264.519531 363.324219 C 264.691406 363.324219 264.855469 363.40625 264.953125 363.539062 C 265.078125 363.714844 265.09375 363.9375 264.988281 364.121094 C 262.898438 367.773438 262.3125 372.367188 263.414062 376.410156 Z M 263.414062 376.410156 " style=" stroke:none;fill-rule:nonzero;fill:rgb(100%,82.352941%,73.333333%);fill-opacity:1;" />
<path d="M 351.554688 84.277344 L 381.464844 85.105469 L 382.71875 44.859375 L 352.515625 62.863281 Z M 351.554688 84.277344 " style=" stroke:none;fill-rule:nonzero;fill:rgb(92.941176%,42.745098%,40%);fill-opacity:1;" />
<path d="M 224.511719 259.703125 L 225.609375 232.609375 L 205.257812 259.761719 Z M 224.511719 259.703125 " style=" stroke:none;fill-rule:nonzero;fill:rgb(92.941176%,42.745098%,40%);fill-opacity:1;" />
<path d="M 166.417969 224.957031 C 163.714844 224.957031 161.011719 224.964844 158.3125 224.980469 L 156.789062 224.992188 L 131.539062 259.914062 L 169.3125 259.828125 L 197.078125 225.324219 L 190.972656 225.203125 C 182.890625 225.039062 174.628906 224.957031 166.417969 224.957031 Z M 166.417969 224.957031 " style=" stroke:none;fill-rule:nonzero;fill:rgb(92.941176%,42.745098%,40%);fill-opacity:1;" />
<path d="M 83.566406 227.789062 L 82.320312 227.875 L 81.503906 228.816406 C 81.441406 228.890625 81.378906 228.96875 81.3125 229.054688 L 51.984375 260.085938 L 92.601562 259.996094 L 123.691406 225.691406 L 116.539062 225.984375 C 105.613281 226.433594 94.519531 227.039062 83.566406 227.789062 Z M 83.566406 227.789062 " style=" stroke:none;fill-rule:nonzero;fill:rgb(92.941176%,42.745098%,40%);fill-opacity:1;" />
<path d="M 46.359375 463.007812 C 42.964844 455.574219 41.820312 447.339844 43.046875 439.191406 L 43.960938 433.101562 L 37.660156 436.660156 C 36.976562 437.046875 36.292969 437.429688 35.613281 437.824219 C 24.882812 444 14.742188 450.367188 8.59375 460.328125 C 2.667969 469.941406 1.832031 484.617188 10.703125 492.542969 C 14.679688 496.085938 20.371094 498.035156 26.734375 498.035156 C 28.257812 498.035156 29.824219 497.925781 31.382812 497.703125 C 38.792969 496.671875 45.710938 493.511719 52.40625 490.449219 L 66.554688 483.976562 L 61.941406 481.007812 C 55.105469 476.609375 49.71875 470.386719 46.359375 463.007812 Z M 46.359375 463.007812 " style=" stroke:none;fill-rule:nonzero;fill:rgb(92.941176%,42.745098%,40%);fill-opacity:1;" />
<path d="M 13.257812 242.535156 C 13.269531 244.765625 13.339844 247.378906 13.800781 249.832031 L 14.730469 254.804688 L 18.648438 251.605469 C 26.1875 245.449219 32.949219 239.820312 39.316406 234.398438 L 40.398438 233.476562 L 39.375 180.925781 L 13.03125 206.738281 Z M 13.257812 242.535156 " style=" stroke:none;fill-rule:nonzero;fill:rgb(92.941176%,42.745098%,40%);fill-opacity:1;" />
<path d="M 12.609375 141.933594 L 12.824219 174.246094 L 38.785156 150.574219 L 38.195312 119.707031 Z M 12.609375 141.933594 " style=" stroke:none;fill-rule:nonzero;fill:rgb(92.941176%,42.745098%,40%);fill-opacity:1;" />
<path d="M 12.21875 82.125 L 12.417969 113.316406 L 37.667969 92.515625 L 37.09375 63.347656 Z M 12.21875 82.125 " style=" stroke:none;fill-rule:nonzero;fill:rgb(92.941176%,42.745098%,40%);fill-opacity:1;" />
<path d="M 12.078125 60.371094 L 33.207031 43.792969 L 38.441406 42.804688 L 34.628906 38.8125 C 29.277344 33.203125 24.054688 27.613281 19.105469 22.191406 L 15.796875 18.566406 L 14.078125 23.160156 C 12.050781 28.582031 11.917969 34.996094 11.957031 41.101562 Z M 12.078125 60.371094 " style=" stroke:none;fill-rule:nonzero;fill:rgb(92.941176%,42.745098%,40%);fill-opacity:1;" />
<path d="M 94.511719 466.382812 C 87.109375 460.628906 81.515625 452.550781 78.765625 443.628906 C 76.484375 436.226562 76.125 428.257812 77.734375 420.589844 L 79.03125 414.421875 L 73.425781 417.304688 C 71.601562 418.242188 69.789062 419.191406 67.980469 420.136719 L 67.984375 420.109375 L 62.25 423.140625 C 60.703125 423.957031 59.152344 424.785156 57.613281 425.613281 L 57.617188 425.570312 L 51.980469 428.660156 C 50.175781 429.648438 48.367188 430.640625 46.570312 431.640625 L 44.816406 432.613281 L 45.050781 434.609375 C 45.058594 434.691406 45.054688 434.761719 45.042969 434.808594 C 42.59375 443.898438 43.425781 454.015625 47.328125 462.5625 C 51.203125 471.078125 58.226562 478.316406 66.621094 482.4375 L 68.050781 483.296875 L 78.238281 478.640625 L 78.246094 478.648438 L 86.726562 474.757812 L 86.726562 474.765625 L 98.421875 469.421875 Z M 94.511719 466.382812 " style=" stroke:none;fill-rule:nonzero;fill:rgb(97.647059%,84.705882%,53.72549%);fill-opacity:1;" />
<path d="M 511.046875 86.761719 C 510.402344 86.070312 509.507812 85.667969 508.5625 85.640625 L 385.625 82.21875 L 387.902344 9.164062 C 387.964844 7.226562 386.457031 5.605469 384.523438 5.519531 L 376.113281 5.160156 C 263.085938 0.292969 152.382812 -3.382812 40.710938 4.941406 C 31.371094 5.636719 21.710938 6.890625 15.1875 13.726562 C 8.335938 20.910156 7.824219 31.203125 7.890625 41.128906 L 9.191406 242.570312 C 9.234375 248.863281 9.71875 255.953125 15.027344 260.414062 C 19.339844 264.039062 25.191406 264.210938 29.308594 264.210938 C 29.527344 264.210938 29.738281 264.210938 29.949219 264.210938 L 221.351562 263.785156 L 218.023438 347.160156 C 208.074219 351 198.332031 355.261719 188.753906 359.457031 C 137.003906 382.121094 83.488281 405.554688 33.585938 434.292969 C 22.824219 440.492188 11.761719 447.441406 5.132812 458.1875 C 1.636719 463.851562 -0.222656 470.871094 0.0234375 477.449219 C 0.296875 484.789062 3.125 491.222656 7.992188 495.570312 C 12.753906 499.820312 19.414062 502.101562 26.773438 502.101562 C 28.46875 502.101562 30.203125 501.980469 31.957031 501.734375 C 39.941406 500.617188 47.140625 497.328125 54.101562 494.148438 L 212.492188 421.773438 L 214.007812 495.246094 C 214.042969 496.957031 215.300781 498.398438 216.992188 498.664062 C 265.632812 506.328125 314.742188 510.164062 363.886719 510.164062 C 398.898438 510.164062 433.929688 508.214844 468.789062 504.316406 C 477.015625 503.398438 486.238281 501.8125 491.621094 494.636719 C 495.796875 489.0625 496.09375 481.753906 496.3125 476.421875 L 511.996094 89.316406 C 512.035156 88.371094 511.695312 87.453125 511.046875 86.761719 Z M 354.6875 81.359375 L 355.4375 64.609375 L 379.550781 50.246094 L 378.558594 82.023438 Z M 379.699219 45.523438 C 379.550781 45.570312 379.40625 45.628906 379.269531 45.710938 L 355.652344 59.777344 L 356.378906 43.613281 C 356.382812 43.484375 356.375 43.359375 356.355469 43.234375 L 380.515625 19.238281 Z M 350.648438 81.246094 L 318.976562 80.363281 L 352.164062 47.398438 Z M 377.476562 12.292969 L 309.21875 80.09375 L 290.351562 79.566406 L 362.160156 11.640625 C 366.707031 11.832031 371.253906 12.023438 375.804688 12.222656 Z M 41.238281 11.988281 C 146.179688 4.167969 250.398438 6.984375 356.53125 11.40625 L 284.640625 79.410156 L 260.304688 78.730469 C 240.410156 78.1875 234.285156 83.90625 231.160156 88.957031 C 228.128906 93.859375 227.898438 99.671875 227.710938 104.34375 L 226.609375 131.992188 C 226.609375 131.992188 226.605469 131.992188 226.605469 131.996094 L 200.839844 154.710938 C 142.527344 111.242188 86.632812 63.480469 34.5625 12.660156 C 36.71875 12.359375 38.957031 12.160156 41.238281 11.988281 Z M 222.367188 235.195312 L 206.21875 256.75 L 173.066406 256.824219 L 195.863281 228.484375 C 195.902344 228.433594 195.929688 228.378906 195.964844 228.328125 C 204.898438 228.550781 213.820312 228.863281 222.726562 229.285156 L 222.496094 235.050781 C 222.453125 235.097656 222.40625 235.140625 222.367188 235.195312 Z M 137.417969 256.902344 L 158.332031 227.980469 C 169.199219 227.910156 180.058594 227.980469 190.90625 228.203125 L 167.871094 256.832031 Z M 96.730469 256.992188 L 121.757812 229.363281 C 121.921875 229.179688 122.042969 228.972656 122.128906 228.757812 C 132.523438 228.378906 142.921875 228.136719 153.320312 228.023438 L 132.425781 256.914062 Z M 58.960938 257.074219 L 83.597656 231 C 83.664062 230.929688 83.714844 230.851562 83.769531 230.777344 C 94.714844 230.027344 105.679688 229.429688 116.65625 228.976562 L 91.269531 257.003906 Z M 222.886719 225.246094 C 165.886719 222.554688 108.265625 223.9375 51.410156 229.367188 C 83.460938 201.535156 114.214844 171.988281 143.1875 141.171875 C 160.175781 154.464844 177.566406 167.242188 195.351562 179.445312 C 195.957031 179.859375 196.652344 180.066406 197.351562 180.066406 C 198.195312 180.066406 199.039062 179.761719 199.707031 179.164062 L 225.652344 155.972656 Z M 16.746094 249.277344 C 16.351562 247.140625 16.273438 244.773438 16.257812 242.523438 L 16.035156 207.992188 L 36.511719 187.929688 L 37.371094 232.113281 C 30.550781 237.917969 23.671875 243.636719 16.746094 249.277344 Z M 14.957031 41.082031 C 14.917969 34.941406 15.085938 29.027344 16.886719 24.214844 C 22.015625 29.828125 27.210938 35.382812 32.464844 40.882812 C 32.144531 40.9375 31.832031 41.0625 31.558594 41.273438 L 15.042969 54.230469 Z M 29.71875 13.582031 C 82.882812 65.640625 140.0625 114.53125 199.742188 158.929688 C 200.101562 159.195312 200.527344 159.328125 200.949219 159.328125 C 201.425781 159.328125 201.90625 159.15625 202.285156 158.820312 L 226.386719 137.570312 L 226.019531 146.800781 C 225.441406 146.925781 224.882812 147.179688 224.410156 147.601562 L 197.066406 172.046875 C 132.738281 127.652344 73.476562 75.867188 20.847656 18.082031 C 23.230469 15.832031 26.277344 14.457031 29.71875 13.582031 Z M 41.875 228.253906 C 41.917969 227.652344 41.699219 227.09375 41.304688 226.695312 L 37.808594 46.433594 C 69.070312 78.664062 102.433594 108.867188 137.609375 136.78125 C 107.449219 168.828125 75.351562 199.484375 41.875 228.253906 Z M 15.078125 59.335938 L 33.734375 44.699219 L 34.117188 64.296875 L 15.199219 78.574219 Z M 34.636719 91.117188 L 15.382812 106.996094 L 15.234375 83.613281 L 34.210938 69.285156 Z M 15.417969 112.203125 L 34.734375 96.269531 L 35.214844 120.953125 C 35.152344 120.996094 35.089844 121.035156 35.03125 121.082031 L 15.585938 137.972656 Z M 15.617188 143.292969 L 35.316406 126.1875 L 35.761719 149.269531 L 15.777344 167.488281 Z M 15.8125 172.921875 L 35.867188 154.640625 L 36.414062 182.722656 C 36.101562 182.8125 35.804688 182.96875 35.558594 183.210938 L 16 202.371094 Z M 29.929688 257.140625 C 26.226562 257.144531 22.695312 257.007812 20.296875 255.507812 C 28.976562 248.453125 37.570312 241.265625 46.078125 233.960938 C 56.648438 232.898438 67.242188 231.976562 77.855469 231.195312 L 53.394531 257.089844 Z M 211.273438 256.738281 L 222.214844 242.132812 L 221.632812 256.714844 Z M 191.589844 365.933594 C 201.507812 361.589844 211.601562 357.175781 221.882812 353.257812 C 222.449219 353.183594 222.972656 352.980469 223.429688 352.671875 C 230.964844 349.839844 238.605469 347.296875 246.351562 345.257812 C 245.632812 348.878906 246.011719 352.964844 247.140625 356.585938 C 248.371094 360.550781 251.246094 363.761719 254.816406 365.675781 L 82.246094 440.996094 C 80.003906 432.671875 80.390625 423.726562 83.371094 415.621094 C 119.054688 397.699219 155.746094 381.628906 191.589844 365.933594 Z M 288.402344 339.753906 C 287.542969 346.429688 290.394531 353.484375 295.792969 357.5625 C 289.472656 366.558594 282.527344 375.074219 273.871094 381.574219 C 273.164062 382.105469 272.445312 382.625 271.730469 383.140625 C 269.125 381.386719 267.125 378.644531 266.304688 375.628906 C 265.410156 372.328125 265.890625 368.585938 267.589844 365.617188 C 268.28125 364.414062 268.203125 362.917969 267.394531 361.792969 C 266.582031 360.667969 265.1875 360.121094 263.832031 360.394531 C 259.761719 361.203125 255.121094 358.445312 253.890625 354.488281 C 252.742188 350.785156 252.46875 345.117188 255.160156 343.195312 C 266.027344 341.019531 277.25 340.191406 288.402344 339.753906 Z M 298.082031 354.238281 C 293.804688 350.902344 291.578125 344.957031 292.511719 339.609375 C 295.554688 339.511719 298.589844 339.433594 301.601562 339.355469 C 303.726562 339.304688 305.886719 339.25 308.054688 339.1875 C 306.6875 341.242188 305.335938 343.300781 304.007812 345.320312 C 302.0625 348.289062 300.097656 351.277344 298.082031 354.238281 Z M 99.570312 465.597656 C 99.320312 465.078125 98.953125 464.605469 98.449219 464.25 C 91.667969 459.4375 86.433594 452.621094 83.496094 444.859375 L 259.195312 368.171875 C 258.582031 371.234375 258.660156 374.4375 259.484375 377.476562 C 260.511719 381.28125 262.671875 384.714844 265.59375 387.320312 C 252.742188 395.605469 238.601562 402.070312 224.84375 408.355469 Z M 68.242188 479.914062 C 68.1875 479.882812 68.140625 479.84375 68.085938 479.816406 C 60.242188 476 53.671875 469.261719 50.058594 461.324219 C 46.441406 453.390625 45.667969 444.007812 47.9375 435.589844 C 48.054688 435.140625 48.078125 434.691406 48.027344 434.257812 C 49.902344 433.21875 51.78125 432.1875 53.664062 431.160156 C 52.292969 439.4375 53.296875 448.011719 56.617188 455.773438 C 60.382812 464.578125 66.960938 471.953125 75.242188 476.714844 Z M 78.664062 473.988281 C 70.59375 469.773438 63.910156 462.554688 60.332031 454.1875 C 56.9375 446.253906 56.222656 437.03125 58.304688 428.648438 C 60.082031 427.691406 61.863281 426.734375 63.652344 425.789062 C 61.800781 434.117188 62.394531 443.066406 65.425781 451.003906 C 68.859375 459.992188 75.472656 467.863281 83.710938 472.84375 L 79.480469 474.777344 C 79.292969 474.453125 79.019531 474.175781 78.664062 473.988281 Z M 87.160156 470.175781 C 79.046875 465.722656 72.5 458.210938 69.199219 449.5625 C 66.023438 441.246094 65.796875 431.714844 68.523438 423.230469 C 70.613281 422.140625 72.699219 421.046875 74.796875 419.96875 C 73.097656 428.070312 73.449219 436.566406 75.898438 444.507812 C 78.851562 454.078125 84.769531 462.613281 92.667969 468.753906 L 87.917969 470.921875 C 87.742188 470.621094 87.488281 470.355469 87.160156 470.175781 Z M 51.164062 487.71875 C 44.664062 490.6875 37.941406 493.757812 30.972656 494.734375 C 23.667969 495.757812 17.007812 494.140625 12.703125 490.296875 C 5.003906 483.421875 5.867188 470.460938 11.148438 461.902344 C 16.917969 452.550781 26.722656 446.402344 37.113281 440.421875 C 38.097656 439.855469 39.089844 439.304688 40.078125 438.742188 C 38.777344 447.367188 39.984375 456.265625 43.625 464.257812 C 47.230469 472.164062 53.0625 478.859375 60.320312 483.535156 Z M 489.246094 476.132812 C 489.015625 481.847656 488.609375 486.867188 485.960938 490.398438 C 482.273438 495.316406 474.757812 496.535156 468.003906 497.292969 C 385.816406 506.484375 302.738281 504.75 221.015625 492.136719 L 219.496094 418.570312 L 227.78125 414.785156 C 244.910156 406.960938 262.617188 398.871094 278.117188 387.230469 C 291.636719 377.074219 300.929688 362.902344 309.917969 349.199219 C 312.472656 345.304688 315.113281 341.277344 317.792969 337.445312 C 318.558594 336.34375 318.636719 334.90625 317.996094 333.726562 C 317.351562 332.550781 316.105469 331.847656 314.753906 331.890625 C 310.324219 332.0625 305.796875 332.179688 301.421875 332.289062 C 286.035156 332.679688 270.179688 333.09375 254.714844 336.078125 C 254.148438 336.027344 253.566406 336.09375 253.003906 336.332031 C 252.914062 336.375 252.832031 336.425781 252.742188 336.46875 C 251.75 336.675781 250.757812 336.890625 249.765625 337.121094 C 241.417969 339.058594 233.238281 341.601562 225.203125 344.484375 L 234.777344 104.625 C 234.9375 100.578125 235.121094 95.996094 237.175781 92.671875 C 241.199219 86.160156 251.023438 85.535156 260.105469 85.796875 L 308.816406 87.152344 C 309.292969 87.378906 309.808594 87.507812 310.328125 87.507812 C 310.789062 87.507812 311.25 87.414062 311.6875 87.234375 L 504.789062 92.609375 Z M 489.246094 476.132812 " style=" stroke:none;fill-rule:nonzero;fill:rgb(0%,0%,0%);fill-opacity:1;" />
<path d="M 257.875 149.789062 C 259.132812 149.789062 260.390625 149.535156 261.546875 149.011719 C 264.003906 147.898438 266.023438 145.65625 267.226562 142.699219 C 267.261719 142.621094 267.292969 142.539062 267.324219 142.457031 C 270.203125 144.816406 273.964844 146.136719 277.691406 146.019531 C 284.320312 145.855469 290.707031 141.234375 293.585938 134.519531 C 296.015625 128.859375 296.066406 121.949219 293.726562 115.0625 C 291.539062 108.609375 287.582031 103.140625 282.585938 99.667969 C 276.929688 95.738281 269.886719 94.390625 263.746094 96.066406 C 257.015625 97.902344 251.648438 103.476562 250.386719 109.941406 C 250.175781 111.035156 250.886719 112.097656 251.984375 112.308594 C 253.082031 112.523438 254.136719 111.808594 254.351562 110.714844 C 255.324219 105.726562 259.527344 101.40625 264.804688 99.964844 C 269.808594 98.597656 275.59375 99.726562 280.277344 102.984375 C 284.570312 105.96875 287.988281 110.71875 289.902344 116.359375 C 291.917969 122.300781 291.90625 128.1875 289.871094 132.929688 C 287.640625 138.136719 282.585938 141.859375 277.585938 141.984375 C 274.792969 142.039062 271.972656 141.070312 269.828125 139.289062 C 269.363281 138.902344 268.914062 138.472656 268.46875 138.011719 C 268.617188 137.074219 268.730469 136.125 268.835938 135.171875 C 269.839844 125.933594 270.164062 116.542969 269.800781 107.257812 C 269.757812 106.144531 268.832031 105.285156 267.703125 105.320312 C 266.589844 105.363281 265.71875 106.300781 265.761719 107.417969 C 266.117188 116.347656 265.8125 125.382812 264.867188 134.269531 C 263.753906 133.265625 262.503906 132.386719 260.972656 131.839844 C 257.121094 130.457031 252.609375 131.867188 250.238281 135.191406 C 247.890625 138.476562 248.039062 143.308594 250.589844 146.4375 C 252.347656 148.589844 255.117188 149.789062 257.875 149.789062 Z M 253.527344 137.535156 C 254.5 136.167969 256.246094 135.359375 257.953125 135.359375 C 258.519531 135.359375 259.082031 135.449219 259.609375 135.636719 C 261.300781 136.246094 262.675781 137.6875 264.105469 139.25 C 263.941406 139.914062 263.738281 140.558594 263.488281 141.175781 C 263.015625 142.332031 261.921875 144.410156 259.878906 145.332031 C 257.84375 146.257812 255.136719 145.621094 253.722656 143.882812 C 252.308594 142.148438 252.222656 139.359375 253.527344 137.535156 Z M 253.527344 137.535156 " style=" stroke:none;fill-rule:nonzero;fill:rgb(0%,0%,0%);fill-opacity:1;" />
<path d="M 307.402344 123.675781 C 303.917969 127.507812 302.097656 130.972656 301.679688 134.574219 C 301.648438 134.835938 301.628906 135.105469 301.617188 135.378906 C 300.148438 135.339844 298.6875 135.070312 297.296875 134.550781 C 296.25 134.160156 295.085938 134.6875 294.695312 135.730469 C 294.304688 136.773438 294.832031 137.9375 295.875 138.332031 C 297.886719 139.089844 300.03125 139.421875 302.152344 139.398438 C 303.035156 142.242188 305.003906 144.816406 308.105469 145.816406 C 309.003906 146.109375 309.902344 146.238281 310.777344 146.238281 C 314.726562 146.238281 318.308594 143.578125 320.417969 140.90625 C 320.570312 140.71875 320.714844 140.527344 320.859375 140.332031 C 321.949219 143.5 324.769531 145.929688 327.941406 146.078125 C 331.179688 146.214844 334.164062 144.367188 337.035156 140.394531 C 338.175781 142.863281 340.203125 144.886719 343 145.460938 C 346.339844 146.148438 349.945312 144.652344 353.421875 141.144531 C 355.617188 138.933594 357.515625 136.4375 359.0625 133.730469 C 359.648438 132.703125 360.335938 131.386719 360.816406 129.882812 C 362.527344 129.800781 364.234375 129.628906 365.921875 129.363281 C 364.679688 130.523438 363.496094 131.816406 362.617188 133.367188 C 361.195312 135.871094 360.859375 138.644531 361.695312 140.976562 C 362.761719 143.949219 365.746094 145.863281 368.652344 145.429688 C 370.320312 145.179688 371.863281 144.035156 372.683594 142.445312 C 373.449219 140.957031 373.488281 139.3125 372.789062 137.933594 C 372.5 137.363281 371.957031 136.964844 371.328125 136.855469 L 369.976562 136.621094 C 368.875 136.4375 367.828125 137.164062 367.636719 138.265625 C 367.457031 139.304688 368.105469 140.296875 369.109375 140.5625 C 369.105469 140.574219 369.097656 140.585938 369.09375 140.59375 C 368.863281 141.039062 368.445312 141.375 368.050781 141.433594 C 367.078125 141.574219 365.90625 140.75 365.5 139.613281 C 365.070312 138.40625 365.304688 136.816406 366.128906 135.363281 C 366.945312 133.925781 368.183594 132.710938 369.792969 131.328125 L 370.570312 130.664062 C 371.925781 129.515625 373.328125 128.328125 374.53125 126.867188 C 375.105469 126.175781 375.148438 125.1875 374.640625 124.441406 C 374.128906 123.699219 373.191406 123.382812 372.335938 123.667969 C 368.777344 124.847656 365.113281 125.558594 361.398438 125.800781 C 361.21875 122.28125 358.984375 119.285156 355.957031 118.511719 C 354.082031 118.03125 351.976562 118.59375 350.453125 119.976562 C 349.082031 121.226562 348.449219 122.902344 348.710938 124.582031 C 349.199219 127.640625 352.089844 129.601562 356.496094 129.882812 C 356.242188 130.460938 355.929688 131.070312 355.558594 131.722656 C 354.1875 134.121094 352.5 136.335938 350.554688 138.300781 C 348.832031 140.039062 346.265625 142.003906 343.8125 141.5 C 341.472656 141.019531 340.070312 138.3125 340.003906 135.761719 C 341.933594 132.382812 343.488281 128.800781 344.652344 125.070312 C 344.949219 124.113281 344.5 123.082031 343.597656 122.648438 C 342.695312 122.214844 341.609375 122.507812 341.050781 123.335938 C 339.011719 126.347656 336.476562 130.09375 336.019531 134.445312 C 336.015625 134.496094 336.007812 134.546875 336.003906 134.597656 C 335.351562 135.691406 334.65625 136.761719 333.921875 137.804688 C 331.878906 140.695312 329.929688 142.148438 328.128906 142.035156 C 326.042969 141.9375 324.449219 139.59375 324.421875 137.5625 C 324.386719 135.339844 325.710938 132.925781 327.960938 131.109375 C 330.195312 129.304688 333.039062 128.175781 335.789062 127.085938 C 336.597656 126.765625 337.109375 125.964844 337.0625 125.09375 C 337.011719 124.226562 336.414062 123.488281 335.578125 123.257812 C 330.636719 121.914062 325.949219 125.265625 323.4375 128.546875 C 322.199219 130.164062 321.21875 131.914062 320.269531 133.605469 C 319.300781 135.328125 318.386719 136.957031 317.25 138.398438 C 315.332031 140.828125 312.140625 142.878906 309.347656 141.96875 C 307.914062 141.507812 306.875 140.300781 306.265625 138.871094 C 311.539062 137.617188 316.328125 134.179688 318.738281 129.300781 C 320.152344 126.429688 320.128906 123.714844 318.671875 121.851562 C 317.226562 120.007812 314.480469 119.339844 312 120.238281 C 310.082031 120.929688 308.65625 122.296875 307.402344 123.675781 Z M 352.703125 123.953125 C 352.632812 123.511719 353.003906 123.117188 353.167969 122.96875 C 353.574219 122.597656 354.125 122.382812 354.605469 122.382812 C 354.726562 122.382812 354.84375 122.394531 354.953125 122.425781 C 356.375 122.789062 357.234375 124.445312 357.351562 125.878906 C 357.289062 125.875 357.230469 125.871094 357.167969 125.871094 C 355.152344 125.808594 352.894531 125.179688 352.703125 123.953125 Z M 314.253906 123.886719 C 314.78125 123.886719 315.261719 124.050781 315.492188 124.347656 C 315.933594 124.910156 315.785156 126.152344 315.113281 127.515625 C 313.285156 131.222656 309.691406 133.863281 305.707031 134.898438 C 306.058594 132.222656 307.550781 129.515625 310.390625 126.394531 C 311.292969 125.402344 312.277344 124.433594 313.367188 124.042969 C 313.65625 123.9375 313.960938 123.886719 314.253906 123.886719 Z M 314.253906 123.886719 " style=" stroke:none;fill-rule:nonzero;fill:rgb(0%,0%,0%);fill-opacity:1;" />
<path d="M 249.320312 161.082031 C 253.226562 158.445312 258.433594 158.996094 261.191406 159.558594 C 262.902344 159.90625 264.574219 160.40625 266.269531 160.964844 C 266.195312 161.136719 266.136719 161.320312 266.117188 161.515625 L 263.386719 185.53125 C 263.332031 185.707031 263.292969 185.886719 263.285156 186.078125 C 263.285156 186.152344 263.296875 186.222656 263.300781 186.292969 L 260.550781 210.503906 C 260.425781 211.613281 261.222656 212.613281 262.328125 212.738281 C 262.40625 212.746094 262.484375 212.753906 262.558594 212.753906 C 263.574219 212.753906 264.445312 211.992188 264.5625 210.960938 L 267.148438 188.207031 L 280.332031 188.582031 C 280.351562 188.582031 280.371094 188.582031 280.390625 188.582031 C 281.480469 188.582031 282.375 187.71875 282.40625 186.621094 C 282.441406 185.507812 281.5625 184.578125 280.445312 184.546875 L 267.605469 184.183594 L 270.09375 162.257812 C 271.480469 162.730469 272.882812 163.203125 274.316406 163.609375 C 285.332031 166.734375 297.21875 166.027344 307.789062 161.621094 C 308.820312 161.191406 309.304688 160.011719 308.875 158.980469 C 308.449219 157.949219 307.265625 157.460938 306.234375 157.894531 C 296.503906 161.949219 285.5625 162.601562 275.417969 159.722656 C 273.710938 159.238281 271.976562 158.640625 270.296875 158.058594 C 267.628906 157.136719 264.871094 156.183594 262 155.597656 C 257.875 154.761719 251.933594 154.445312 247.0625 157.730469 C 242.605469 160.734375 239.882812 167.402344 242.933594 172.539062 C 243.3125 173.171875 243.980469 173.527344 244.671875 173.527344 C 245.023438 173.527344 245.378906 173.433594 245.699219 173.242188 C 246.660156 172.671875 246.976562 171.433594 246.40625 170.476562 C 244.546875 167.351562 246.449219 163.015625 249.320312 161.082031 Z M 249.320312 161.082031 " style=" stroke:none;fill-rule:nonzero;fill:rgb(0%,0%,0%);fill-opacity:1;" />
<path d="M 372.535156 204.566406 C 370.894531 205.113281 368.921875 203.574219 368.3125 201.878906 C 367.65625 200.058594 367.863281 197.738281 368.9375 194.789062 C 369.238281 193.96875 369.570312 193.15625 369.90625 192.347656 C 370.691406 190.441406 371.5 188.472656 371.910156 186.320312 C 372.464844 183.421875 371.859375 181.023438 370.203125 179.574219 C 368.429688 178.011719 365.570312 177.855469 363.246094 179.183594 C 362.527344 179.597656 361.902344 180.105469 361.347656 180.664062 C 361.195312 180.070312 360.773438 179.554688 360.167969 179.300781 C 359.179688 178.890625 358.046875 179.316406 357.578125 180.273438 C 354.4375 186.664062 350.734375 192.828125 346.5625 198.601562 C 344 202.152344 341.097656 205.632812 337.28125 207.015625 C 335.261719 207.746094 332.816406 207.640625 330.898438 206.738281 C 330.6875 206.640625 330.464844 206.523438 330.238281 206.382812 C 331.238281 205.382812 332.171875 204.480469 333.085938 203.601562 C 337.6875 199.160156 341.011719 195.949219 343.765625 188.207031 C 345.027344 184.660156 344.640625 181.789062 342.679688 180.125 C 341.082031 178.769531 338.585938 178.5625 336.472656 179.617188 C 334.792969 180.449219 333.636719 181.8125 332.683594 183.023438 C 329.777344 186.714844 327.363281 190.773438 325.5 195.082031 C 324.277344 197.921875 323.035156 201.640625 324.324219 205.242188 C 324.429688 205.542969 324.554688 205.835938 324.695312 206.121094 C 322.070312 208.25 318.722656 209.550781 316.105469 208.21875 C 313.636719 206.964844 312.769531 203.738281 313.183594 200.898438 C 316.179688 197.347656 318.84375 193.519531 321.152344 189.449219 C 321.648438 188.574219 321.425781 187.472656 320.636719 186.855469 C 319.84375 186.242188 318.722656 186.300781 318 186.992188 C 315.027344 189.839844 311.328125 193.382812 309.738281 198.027344 C 309.621094 198.367188 309.519531 198.714844 309.433594 199.070312 C 307.316406 201.511719 305.03125 203.8125 302.589844 205.960938 C 301.46875 206.945312 300.265625 207.9375 298.960938 208.308594 C 297.921875 208.601562 296.789062 208.371094 296.324219 207.769531 C 295.488281 206.679688 296.417969 204.425781 297.046875 203.175781 C 300.105469 197.121094 304.148438 191.6875 309.070312 187.019531 C 309.703125 186.417969 309.878906 185.476562 309.503906 184.6875 C 309.128906 183.898438 308.289062 183.441406 307.421875 183.550781 C 305.5 183.796875 303.804688 184.503906 302.164062 185.183594 C 301.808594 185.332031 301.457031 185.480469 301.109375 185.617188 C 301.164062 185.421875 301.207031 185.21875 301.242188 185.007812 C 301.519531 183.300781 300.882812 181.496094 299.539062 180.183594 C 298.171875 178.851562 296.320312 178.246094 294.582031 178.570312 C 292.890625 178.886719 291.4375 180.015625 290.589844 181.671875 C 289.746094 183.332031 289.679688 185.257812 290.421875 186.824219 C 290.703125 187.414062 291.0625 187.929688 291.484375 188.371094 L 281.476562 192.988281 C 280.464844 193.453125 280.019531 194.65625 280.488281 195.667969 C 280.953125 196.679688 282.15625 197.121094 283.167969 196.65625 L 295.238281 191.089844 C 295.566406 190.9375 295.960938 190.757812 296.390625 190.535156 C 297.671875 190.652344 298.996094 190.527344 300.214844 190.195312 C 300.402344 190.144531 300.59375 190.089844 300.777344 190.03125 C 297.9375 193.519531 295.484375 197.3125 293.441406 201.359375 C 291.566406 205.078125 291.457031 208.0625 293.121094 210.226562 C 294.605469 212.160156 297.394531 212.949219 300.0625 212.191406 C 302.179688 211.59375 303.851562 210.226562 305.253906 208.992188 C 306.675781 207.742188 308.046875 206.445312 309.363281 205.101562 C 309.992188 207.910156 311.585938 210.449219 314.273438 211.816406 C 315.632812 212.511719 317.035156 212.808594 318.429688 212.808594 C 321.640625 212.808594 324.800781 211.230469 327.265625 209.230469 C 327.84375 209.675781 328.484375 210.066406 329.175781 210.394531 C 332.074219 211.757812 335.617188 211.914062 338.65625 210.808594 C 343.5 209.054688 346.890625 205.042969 349.835938 200.964844 C 350.105469 200.59375 350.371094 200.222656 350.632812 199.851562 C 349.710938 202.261719 348.90625 204.722656 348.214844 207.226562 C 347.925781 208.277344 348.523438 209.367188 349.566406 209.691406 C 350.605469 210.015625 351.714844 209.453125 352.070312 208.425781 L 355.417969 198.773438 C 357.359375 194.179688 359.75 189.777344 362.5625 185.621094 C 363.34375 184.46875 364.191406 183.296875 365.253906 182.6875 C 366.0625 182.222656 367.0625 182.1875 367.535156 182.605469 C 368.046875 183.054688 368.203125 184.1875 367.941406 185.5625 C 367.609375 187.3125 366.910156 189.007812 366.167969 190.804688 C 365.8125 191.667969 365.457031 192.53125 365.140625 193.40625 C 363.730469 197.28125 363.523438 200.5 364.511719 203.246094 C 365.792969 206.8125 369.835938 209.734375 373.820312 208.394531 C 375.574219 207.804688 377.035156 206.457031 377.996094 204.609375 C 378.171875 205.164062 378.386719 205.6875 378.644531 206.183594 C 380.035156 208.863281 382.796875 210.570312 385.472656 210.457031 C 390.5 210.230469 392.753906 204.695312 393.585938 202.460938 C 393.628906 202.722656 393.679688 202.988281 393.738281 203.25 C 394.566406 206.996094 396.71875 209.96875 399.644531 211.394531 C 402.496094 212.789062 406.105469 212.671875 409.304688 211.082031 C 411.777344 209.851562 413.964844 207.847656 415.996094 204.957031 C 418.03125 202.058594 419.082031 199.367188 419.199219 196.734375 C 419.363281 193.125 417.546875 189.734375 414.679688 188.292969 C 412.929688 187.410156 410.753906 187.367188 408.863281 188.171875 C 407.167969 188.890625 405.90625 190.230469 405.402344 191.851562 C 405.070312 192.917969 405.664062 194.050781 406.730469 194.382812 C 407.796875 194.71875 408.929688 194.121094 409.257812 193.054688 C 409.464844 192.390625 410.089844 192.039062 410.441406 191.890625 C 411.230469 191.554688 412.183594 191.5625 412.867188 191.902344 C 414.3125 192.628906 415.253906 194.539062 415.164062 196.550781 C 415.078125 198.394531 414.269531 200.386719 412.6875 202.636719 C 411.054688 204.964844 409.359375 206.542969 407.503906 207.464844 C 405.453125 208.484375 403.121094 208.601562 401.414062 207.765625 C 399.628906 206.894531 398.234375 204.882812 397.679688 202.378906 C 397.132812 199.894531 397.367188 197.230469 397.675781 194.488281 C 397.929688 192.246094 398.222656 190.007812 398.558594 187.773438 C 402.050781 176.492188 404.886719 164.980469 407.023438 153.398438 C 407.210938 152.359375 406.570312 151.351562 405.550781 151.078125 C 404.53125 150.8125 403.476562 151.371094 403.128906 152.371094 C 400.308594 160.492188 398.03125 168.808594 396.316406 177.242188 C 396.011719 177.066406 395.664062 176.964844 395.292969 176.964844 C 395.289062 176.964844 395.285156 176.964844 395.28125 176.964844 C 385.492188 177.03125 376.628906 184.996094 375.53125 194.726562 C 375.425781 195.652344 375.386719 196.5625 375.351562 197.441406 C 375.300781 198.722656 375.25 199.929688 375.003906 201.0625 C 374.703125 202.457031 373.894531 204.109375 372.535156 204.566406 Z M 295.632812 186.308594 C 294.921875 186.082031 294.351562 185.683594 294.074219 185.097656 C 293.867188 184.660156 293.914062 184.054688 294.191406 183.507812 C 294.457031 182.984375 294.882812 182.625 295.328125 182.542969 C 295.390625 182.53125 295.457031 182.523438 295.523438 182.523438 C 295.917969 182.523438 296.359375 182.722656 296.71875 183.074219 C 297.117188 183.460938 297.320312 183.953125 297.253906 184.359375 C 297.132812 185.105469 296.488281 185.746094 295.632812 186.308594 Z M 327.902344 203.011719 C 327.554688 200.929688 328.394531 198.574219 329.210938 196.6875 C 330.929688 192.695312 333.167969 188.941406 335.855469 185.523438 C 336.539062 184.65625 337.34375 183.695312 338.269531 183.234375 C 338.605469 183.066406 338.976562 182.984375 339.308594 182.984375 C 339.617188 182.984375 339.890625 183.058594 340.066406 183.203125 C 340.628906 183.683594 340.589844 185.082031 339.960938 186.855469 C 337.527344 193.703125 334.644531 196.484375 330.28125 200.695312 C 329.542969 201.40625 328.746094 202.175781 327.902344 203.011719 Z M 381.523438 199.351562 C 382.160156 191.230469 387.921875 183.746094 395.589844 181.023438 C 395.234375 182.964844 394.90625 184.914062 394.613281 186.867188 C 393.15625 191.546875 391.585938 196.1875 389.902344 200.773438 C 388.554688 204.445312 387.003906 206.347656 385.292969 206.425781 C 384.175781 206.496094 382.902344 205.613281 382.230469 204.320312 C 381.589844 203.089844 381.359375 201.464844 381.523438 199.351562 Z M 381.523438 199.351562 " style=" stroke:none;fill-rule:nonzero;fill:rgb(0%,0%,0%);fill-opacity:1;" />
<path d="M 320.59375 184.222656 C 321.5 184.222656 322.324219 183.609375 322.554688 182.691406 L 323.472656 179.015625 C 323.742188 177.933594 323.085938 176.835938 322.003906 176.566406 C 320.921875 176.292969 319.824219 176.953125 319.554688 178.035156 L 318.632812 181.710938 C 318.363281 182.792969 319.023438 183.890625 320.105469 184.160156 C 320.269531 184.203125 320.433594 184.222656 320.59375 184.222656 Z M 320.59375 184.222656 " style=" stroke:none;fill-rule:nonzero;fill:rgb(0%,0%,0%);fill-opacity:1;" />
<path d="M 419.039062 218.066406 C 418.207031 218.8125 418.136719 220.089844 418.878906 220.921875 C 419.28125 221.363281 419.832031 221.59375 420.386719 221.59375 C 420.867188 221.59375 421.347656 221.421875 421.734375 221.074219 C 425.546875 217.660156 427.480469 212.183594 426.660156 207.128906 C 426.484375 206.027344 425.445312 205.28125 424.34375 205.457031 C 423.242188 205.636719 422.496094 206.675781 422.671875 207.777344 C 423.28125 211.507812 421.851562 215.546875 419.039062 218.066406 Z M 419.039062 218.066406 " style=" stroke:none;fill-rule:nonzero;fill:rgb(0%,0%,0%);fill-opacity:1;" />
<path d="M 251.488281 247.070312 C 251.492188 248.183594 252.394531 249.089844 253.507812 249.089844 C 253.511719 249.089844 253.511719 249.089844 253.511719 249.089844 L 472.632812 248.917969 C 473.75 248.914062 474.652344 248.011719 474.652344 246.894531 C 474.652344 245.78125 473.746094 244.878906 472.632812 244.878906 L 253.507812 245.046875 C 252.394531 245.050781 251.488281 245.953125 251.488281 247.070312 Z M 251.488281 247.070312 " style=" stroke:none;fill-rule:nonzero;fill:rgb(0%,0%,0%);fill-opacity:1;" />
<path d="M 443.394531 265.984375 L 251.71875 264.875 C 251.714844 264.875 251.710938 264.875 251.707031 264.875 C 250.59375 264.875 249.691406 265.773438 249.6875 266.882812 C 249.679688 268 250.578125 268.910156 251.695312 268.914062 L 443.371094 270.023438 C 443.375 270.023438 443.378906 270.023438 443.382812 270.023438 C 444.492188 270.023438 445.398438 269.128906 445.402344 268.015625 C 445.410156 266.902344 444.511719 265.992188 443.394531 265.984375 Z M 443.394531 265.984375 " style=" stroke:none;fill-rule:nonzero;fill:rgb(0%,0%,0%);fill-opacity:1;" />
<path d="M 255.3125 284.628906 C 255.3125 284.628906 255.308594 284.628906 255.308594 284.628906 C 254.195312 284.628906 253.289062 285.53125 253.289062 286.644531 C 253.289062 287.761719 254.191406 288.667969 255.304688 288.667969 L 443.382812 288.949219 C 443.382812 288.949219 443.382812 288.949219 443.386719 288.949219 C 444.5 288.949219 445.402344 288.046875 445.40625 286.929688 C 445.40625 285.816406 444.503906 284.910156 443.386719 284.90625 Z M 255.3125 284.628906 " style=" stroke:none;fill-rule:nonzero;fill:rgb(0%,0%,0%);fill-opacity:1;" />
<path d="M 463.65625 309.570312 L 251.277344 306.875 C 251.269531 306.875 251.257812 306.875 251.25 306.875 C 250.148438 306.875 249.246094 307.761719 249.230469 308.867188 C 249.21875 309.984375 250.109375 310.898438 251.226562 310.914062 L 463.605469 313.609375 C 463.613281 313.609375 463.621094 313.609375 463.632812 313.609375 C 464.734375 313.609375 465.636719 312.71875 465.652344 311.613281 C 465.664062 310.5 464.773438 309.582031 463.65625 309.570312 Z M 463.65625 309.570312 " style=" stroke:none;fill-rule:nonzero;fill:rgb(0%,0%,0%);fill-opacity:1;" />
<path d="M 446.316406 336.242188 C 446.347656 336.246094 446.378906 336.246094 446.414062 336.246094 C 447.484375 336.246094 448.378906 335.402344 448.429688 334.324219 C 448.480469 333.207031 447.621094 332.261719 446.507812 332.207031 L 346.289062 327.433594 C 345.167969 327.414062 344.226562 328.242188 344.175781 329.355469 C 344.121094 330.46875 344.980469 331.414062 346.09375 331.46875 Z M 446.316406 336.242188 " style=" stroke:none;fill-rule:nonzero;fill:rgb(0%,0%,0%);fill-opacity:1;" />
<path d="M 427.699219 418.152344 C 427.871094 418.152344 428.050781 418.128906 428.226562 418.082031 C 429.300781 417.792969 429.941406 416.683594 429.652344 415.609375 L 427.074219 406.007812 C 426.785156 404.929688 425.679688 404.289062 424.601562 404.578125 C 423.523438 404.867188 422.882812 405.976562 423.171875 407.054688 L 425.75 416.65625 C 425.992188 417.558594 426.808594 418.152344 427.699219 418.152344 Z M 427.699219 418.152344 " style=" stroke:none;fill-rule:nonzero;fill:rgb(0%,0%,0%);fill-opacity:1;" />
<path d="M 441.09375 413.886719 C 441.179688 413.886719 441.269531 413.882812 441.363281 413.867188 C 442.464844 413.722656 443.246094 412.707031 443.097656 411.601562 L 441.894531 402.566406 C 441.75 401.460938 440.730469 400.6875 439.628906 400.828125 C 438.523438 400.976562 437.746094 401.992188 437.890625 403.097656 L 439.09375 412.132812 C 439.226562 413.148438 440.09375 413.886719 441.09375 413.886719 Z M 441.09375 413.886719 " style=" stroke:none;fill-rule:nonzero;fill:rgb(0%,0%,0%);fill-opacity:1;" />
<path d="M 451.734375 409.355469 C 450.628906 409.507812 449.859375 410.527344 450.011719 411.636719 C 451.050781 419.050781 446.109375 426.996094 439 429.34375 C 431.882812 431.691406 423.1875 428.25 419.605469 421.675781 C 419.070312 420.695312 417.84375 420.332031 416.863281 420.867188 C 415.882812 421.402344 415.523438 422.628906 416.054688 423.609375 C 419.617188 430.140625 426.902344 434.136719 434.226562 434.136719 C 436.261719 434.136719 438.300781 433.828125 440.265625 433.179688 C 449.292969 430.199219 455.332031 420.488281 454.015625 411.074219 C 453.859375 409.96875 452.832031 409.191406 451.734375 409.355469 Z M 451.734375 409.355469 " style=" stroke:none;fill-rule:nonzero;fill:rgb(0%,0%,0%);fill-opacity:1;" />
<path d="M 331.769531 349.734375 C 330.652344 349.734375 329.75 350.636719 329.746094 351.75 C 329.746094 352.867188 330.648438 353.773438 331.761719 353.773438 L 456.148438 353.984375 C 456.152344 353.984375 456.152344 353.984375 456.152344 353.984375 C 457.265625 353.984375 458.171875 353.082031 458.171875 351.96875 C 458.175781 350.851562 457.273438 349.945312 456.15625 349.945312 Z M 331.769531 349.734375 " style=" stroke:none;fill-rule:nonzero;fill:rgb(0%,0%,0%);fill-opacity:1;" />
<path d="M 458.011719 376.316406 L 323.402344 375.113281 C 322.289062 375.136719 321.371094 376 321.363281 377.117188 C 321.351562 378.230469 322.25 379.144531 323.363281 379.15625 L 457.976562 380.355469 C 457.980469 380.355469 457.988281 380.355469 457.992188 380.355469 C 459.101562 380.355469 460.003906 379.464844 460.011719 378.355469 C 460.023438 377.238281 459.128906 376.328125 458.011719 376.316406 Z M 458.011719 376.316406 " style=" stroke:none;fill-rule:nonzero;fill:rgb(0%,0%,0%);fill-opacity:1;" />
</g>
</svg>