<svg xmlns="http://www.w3.org/2000/svg" height="512pt" version="1.1" viewBox="-9 0 512 512.00045" width="512pt">
<g id="surface1">
<path d="M 468.351562 33.394531 C 465.566406 20.976562 459.457031 10.8125 451.148438 4.765625 L 450.304688 4.152344 L 449.265625 4.195312 C 446.675781 4.296875 444.011719 4.476562 441.667969 4.636719 C 438.570312 4.839844 435.789062 5.015625 433.03125 5.101562 L 430.207031 5.1875 L 424.003906 215.128906 C 424 215.34375 423.855469 215.539062 423.621094 215.621094 C 423.605469 215.625 423.554688 215.640625 423.472656 215.640625 C 423.394531 215.640625 423.195312 215.621094 423.058594 215.453125 L 402.09375 190.011719 L 385.480469 213.65625 C 385.382812 213.792969 385.21875 213.878906 385.039062 213.878906 C 384.980469 213.878906 384.917969 213.867188 384.855469 213.847656 C 384.636719 213.773438 384.488281 213.554688 384.5 213.328125 L 393.160156 5.039062 L 390.027344 5.042969 C 351.308594 5.078125 308.863281 5.539062 260.273438 6.453125 L 257.195312 6.511719 L 258.984375 45.574219 L 260.796875 46.285156 C 269.125 49.550781 277.171875 53.71875 284.714844 58.667969 L 286.457031 59.8125 L 288.265625 61.085938 C 310 76.378906 326.746094 98.019531 335.421875 122.019531 C 344.8125 147.976562 345.363281 177.867188 336.976562 206.175781 C 329.527344 231.296875 315.863281 252.984375 297.472656 268.890625 L 295.496094 270.601562 L 313.574219 298.503906 C 313.597656 298.539062 313.605469 298.578125 313.617188 298.617188 L 314.128906 300.183594 L 315.726562 300.59375 C 325.191406 303.03125 332.292969 311.625 336.8125 317.878906 L 420.113281 433.109375 L 421.480469 433.226562 C 424.191406 433.464844 425.878906 433.632812 427.257812 433.773438 L 427.519531 433.800781 C 430.074219 434.050781 431.617188 434.203125 437.257812 434.554688 C 439.421875 434.679688 441.558594 434.847656 443.363281 435 L 444.09375 435.058594 L 444.765625 434.777344 C 444.832031 434.75 444.890625 434.734375 444.996094 434.734375 C 445.019531 434.734375 445.046875 434.738281 445.078125 434.738281 C 445.386719 434.789062 445.703125 434.816406 446.019531 434.816406 C 451.792969 434.816406 457.34375 426.523438 459.472656 422.140625 C 462.167969 416.589844 462.324219 410.027344 462.460938 404.238281 L 470.359375 68.140625 C 470.636719 56.679688 470.921875 44.824219 468.351562 33.394531 Z M 468.351562 33.394531 " style=" stroke:none;fill-rule:nonzero;fill:rgb(94.117647%,94.901961%,98.039216%);fill-opacity:1;" />
<path d="M 309.46875 387.390625 L 305.484375 378.835938 L 305.472656 378.835938 L 303.054688 373.621094 C 302.496094 372.425781 301.917969 371.226562 301.324219 370.027344 L 300.550781 368.445312 L 300.53125 368.441406 L 299.277344 365.878906 C 299.035156 365.382812 298.792969 364.894531 298.535156 364.386719 C 292.914062 353.148438 287.097656 341.53125 285.777344 329.246094 C 285.597656 327.597656 285.523438 325.925781 285.5625 324.277344 L 285.585938 323.386719 L 264.457031 289.191406 L 262.113281 290.136719 C 258.457031 291.609375 254.636719 292.964844 250.75 294.160156 L 248.1875 294.953125 L 248.683594 297.585938 C 248.703125 297.679688 248.707031 297.734375 248.707031 297.734375 L 242.738281 430.398438 C 242.730469 430.519531 242.6875 430.601562 242.660156 430.636719 L 239.316406 435.328125 L 245.078125 435.378906 C 257.34375 435.480469 270.074219 435.53125 284.007812 435.53125 C 296.875 435.53125 310.582031 435.488281 327.152344 435.398438 L 331.832031 435.375 L 309.472656 387.386719 Z M 309.46875 387.390625 " style=" stroke:none;fill-rule:nonzero;fill:rgb(94.117647%,94.901961%,98.039216%);fill-opacity:1;" />
<path d="M 487.339844 55.550781 L 487.324219 54.398438 L 487.324219 52.027344 C 487.34375 50.199219 487.398438 48.332031 487.453125 46.507812 L 487.480469 45.550781 C 487.90625 33.175781 488.382812 19.144531 478.835938 11.097656 L 471.464844 4.878906 L 472.074219 7.113281 C 468.605469 5.671875 464.734375 4.761719 460.265625 4.351562 L 452.691406 3.65625 L 457.753906 9.335938 C 463.25 15.507812 467.277344 23.746094 469.394531 33.15625 C 471.992188 44.71875 471.710938 56.640625 471.433594 68.167969 L 463.53125 404.339844 C 463.390625 410.210938 463.226562 416.867188 460.429688 422.613281 C 460.195312 423.101562 458.03125 427.484375 454.65625 431.117188 L 450.453125 435.636719 L 456.605469 436.148438 C 459.535156 436.390625 462.152344 436.574219 464.613281 436.707031 L 464.871094 436.71875 L 464.210938 438.632812 L 470.449219 435.945312 C 475.414062 433.808594 480.722656 427.59375 481.8125 422.636719 C 482.519531 419.398438 482.542969 415.730469 482.5625 412.15625 C 482.570312 410.582031 482.589844 408.761719 482.679688 407.070312 L 482.734375 405.980469 C 482.996094 401.113281 483.257812 396.25 483.5 391.390625 C 484.5625 370.496094 485.480469 349.382812 486.230469 328.636719 C 487.792969 285.191406 488.703125 241.171875 488.933594 197.804688 C 489.191406 150.8125 488.65625 103.011719 487.339844 55.753906 C 487.339844 55.6875 487.339844 55.621094 487.339844 55.550781 Z M 487.339844 55.550781 " style=" stroke:none;fill-rule:nonzero;fill:rgb(84.705882%,87.058824%,92.54902%);fill-opacity:1;" />
<path d="M 28.984375 74.46875 C 29.089844 62.421875 29.203125 49.964844 32.496094 38.050781 C 35.011719 28.960938 38.925781 21.980469 44.46875 16.714844 L 50.394531 11.089844 L 42.238281 11.546875 C 40.359375 11.648438 38.863281 11.757812 37.480469 11.886719 L 38.390625 10.96875 L 28.242188 13.339844 C 19.507812 15.378906 13.582031 19.082031 10.132812 24.667969 C 6.324219 30.84375 6.277344 38.472656 6.234375 45.230469 L 4.074219 396.753906 C 4.03125 404.136719 4.3125 410.65625 8.191406 415.671875 C 10.953125 419.25 15.300781 421.679688 21.484375 423.09375 L 30.539062 425.167969 L 29.898438 424.4375 L 30.09375 424.460938 C 30.523438 424.507812 30.953125 424.554688 31.355469 424.59375 C 32.890625 424.753906 34.414062 424.90625 35.941406 425.054688 L 44.699219 425.921875 L 38.292969 419.886719 C 34.222656 416.050781 32.945312 411.460938 31.324219 405.65625 L 31.261719 405.425781 C 30.886719 404.070312 30.488281 402.644531 30.023438 401.132812 C 26.390625 389.257812 26.199219 376.871094 26.328125 363.078125 Z M 28.984375 74.46875 " style=" stroke:none;fill-rule:nonzero;fill:rgb(84.705882%,87.058824%,92.54902%);fill-opacity:1;" />
<path d="M 247.734375 43.066406 C 235.546875 39.738281 223.429688 38.050781 211.714844 38.050781 C 185.300781 38.050781 160.183594 46.25 134.929688 63.113281 C 113.457031 77.457031 96.0625 96.214844 84.625 117.363281 C 60.292969 162.390625 64.28125 220.847656 94.105469 256.359375 C 115.203125 281.460938 148.882812 296.863281 188.949219 299.722656 C 193.328125 300.03125 197.742188 300.191406 202.070312 300.191406 C 235.660156 300.191406 265.894531 291.089844 289.511719 273.875 C 311.132812 258.117188 327.625 233.964844 335.949219 205.871094 C 344.277344 177.792969 343.738281 148.140625 334.425781 122.378906 C 320.648438 84.292969 287.429688 53.898438 247.734375 43.066406 Z M 325.917969 203.046875 C 318.222656 228.984375 303 251.277344 283.058594 265.816406 C 261.261719 281.710938 233.335938 290.113281 202.304688 290.113281 C 198.367188 290.113281 194.285156 289.964844 190.175781 289.679688 C 153.183594 287.046875 122.085938 272.835938 102.613281 249.660156 C 88.746094 233.140625 80.703125 211.683594 79.359375 187.613281 C 78.082031 164.609375 83.238281 141.089844 93.882812 121.386719 C 104.445312 101.851562 120.507812 84.523438 140.339844 71.273438 C 163.675781 55.683594 186.839844 48.109375 211.152344 48.109375 C 221.972656 48.109375 233.191406 49.671875 244.496094 52.753906 C 281.140625 62.75 311.800781 90.804688 324.515625 125.96875 C 333.109375 149.734375 333.605469 177.109375 325.917969 203.046875 Z M 325.917969 203.046875 " style=" stroke:none;fill-rule:nonzero;fill:rgb(57.647059%,60.784314%,66.666667%);fill-opacity:1;" />
<path d="M 253.207031 6.589844 C 213.652344 7.363281 173.09375 8.363281 137.308594 9.242188 C 110.882812 9.894531 82.574219 10.585938 54.609375 11.203125 L 53.496094 11.28125 L 52.753906 11.894531 C 42.957031 17.527344 37.027344 25.683594 33.53125 38.332031 C 30.28125 50.074219 30.167969 62.460938 30.054688 74.484375 L 27.394531 363.085938 C 27.273438 376.800781 27.460938 389.105469 31.046875 400.820312 C 31.535156 402.414062 31.960938 403.945312 32.359375 405.402344 C 34.933594 414.613281 36.488281 420.175781 49.941406 425.410156 C 50 425.429688 50.070312 425.492188 50.136719 425.574219 L 50.933594 426.511719 L 52.15625 426.625 C 109.078125 431.863281 168.523438 434.628906 239.246094 435.328125 L 245 435.386719 L 241.75 430.636719 C 241.664062 430.507812 241.667969 430.40625 241.671875 430.355469 L 247.753906 295.117188 L 243.828125 296.125 C 230.5625 299.53125 216.515625 301.261719 202.074219 301.261719 C 197.738281 301.261719 193.296875 301.101562 188.878906 300.789062 C 182.160156 300.304688 175.464844 299.449219 168.980469 298.25 L 167.847656 298.042969 L 167.792969 298.074219 L 163.964844 297.238281 C 134.398438 290.785156 109.960938 276.886719 93.289062 257.039062 C 78.105469 238.96875 69.300781 215.492188 67.828125 189.152344 C 67.386719 181.234375 67.652344 173.113281 68.621094 165.015625 L 68.886719 162.804688 L 69.121094 161.253906 C 69.453125 159.039062 69.855469 156.75 70.3125 154.449219 L 70.757812 152.234375 L 71.1875 150.359375 C 71.695312 148.152344 72.246094 145.976562 72.832031 143.886719 L 73.386719 141.914062 L 73.394531 141.914062 L 74.027344 139.882812 C 75.203125 136.121094 76.433594 132.683594 77.789062 129.378906 L 78.722656 127.101562 L 78.734375 127.101562 L 79.507812 125.367188 C 80.777344 122.507812 82.183594 119.640625 83.675781 116.871094 C 84.136719 116.03125 84.613281 115.199219 85.09375 114.367188 L 86.824219 111.371094 L 87.527344 110.222656 C 89.363281 107.246094 91.167969 104.519531 93.054688 101.886719 L 95.164062 98.9375 L 95.203125 98.9375 L 96.0625 97.816406 C 106.542969 84.15625 119.417969 72.179688 134.328125 62.226562 C 159.789062 45.21875 185.066406 36.953125 211.605469 36.953125 C 223.421875 36.953125 235.671875 38.660156 248 42.019531 C 249.820312 42.523438 251.710938 43.09375 253.78125 43.761719 L 257.898438 45.09375 L 256.125 6.53125 Z M 253.207031 6.589844 " style=" stroke:none;fill-rule:nonzero;fill:rgb(100%,100%,100%);fill-opacity:1;" />
<path d="M 302.984375 133.761719 C 292.5625 104.945312 267.433594 81.949219 237.402344 73.746094 C 228.183594 71.234375 219.019531 69.960938 210.164062 69.960938 C 190.160156 69.960938 171.148438 76.164062 152.046875 88.925781 C 135.804688 99.765625 122.644531 113.960938 113.984375 129.976562 C 95.582031 164.046875 98.597656 208.265625 121.15625 235.121094 C 137.113281 254.117188 162.597656 265.765625 192.914062 267.921875 C 196.230469 268.160156 199.574219 268.277344 202.855469 268.277344 C 228.269531 268.277344 251.148438 261.394531 269.011719 248.375 C 285.359375 236.449219 297.835938 218.183594 304.140625 196.933594 C 310.441406 175.671875 310.03125 153.234375 302.984375 133.761719 Z M 302.984375 133.761719 " style=" stroke:none;fill-rule:nonzero;fill:rgb(69.803922%,91.764706%,97.647059%);fill-opacity:1;" />
<path d="M 304.175781 285.957031 L 301.425781 281.703125 L 301.164062 281.3125 L 301.167969 281.3125 L 294.671875 271.28125 L 292.097656 273.242188 L 291.402344 273.78125 C 290.988281 274.101562 290.574219 274.421875 290.136719 274.738281 C 283.613281 279.5 276.347656 283.746094 268.535156 287.359375 L 265.464844 288.777344 L 270.628906 297.144531 L 270.625 297.144531 L 271.003906 297.75 L 271.660156 298.820312 L 271.664062 298.820312 L 275.542969 305.089844 L 275.539062 305.09375 L 285.160156 320.664062 L 287.316406 314.972656 C 289.460938 309.324219 293.589844 304.996094 299.257812 302.457031 C 302.261719 301.117188 305.226562 300.292969 308.066406 300.015625 L 312.96875 299.535156 L 304.175781 285.953125 Z M 304.175781 285.957031 " style=" stroke:none;fill-rule:nonzero;fill:rgb(68.627451%,47.45098%,47.45098%);fill-opacity:1;" />
<path d="M 432.667969 452.28125 L 402.191406 410.125 L 402.191406 410.128906 L 396.609375 402.410156 L 396.605469 402.410156 L 363.019531 355.953125 L 363.023438 355.949219 L 356.824219 347.394531 L 356.828125 347.390625 L 344.488281 330.320312 L 344.484375 330.324219 L 335.945312 318.503906 C 327.308594 306.546875 319.144531 300.980469 310.253906 300.980469 C 309.996094 300.980469 309.734375 300.984375 309.476562 300.992188 L 307.308594 301.074219 L 307.292969 301.035156 L 307.113281 301.078125 L 305.167969 301.152344 L 305.324219 301.527344 L 304.75 301.671875 C 303.101562 302.082031 301.40625 302.671875 299.695312 303.433594 C 297.21875 304.550781 293.679688 306.691406 290.890625 310.570312 L 290.027344 311.765625 L 289.859375 311.675781 L 289.515625 312.480469 L 288.894531 313.34375 L 289.101562 313.453125 L 288.574219 314.699219 C 286.828125 318.808594 286.242188 323.664062 286.835938 329.160156 C 286.859375 329.335938 286.882812 329.511719 286.90625 329.683594 L 286.402344 329.371094 L 288.195312 336.566406 C 290.566406 346.074219 295.105469 355.144531 299.496094 363.917969 C 300.996094 366.90625 302.582031 370.082031 304.019531 373.167969 L 319.945312 407.34375 L 332.90625 435.144531 L 332.902344 435.144531 L 343.886719 458.695312 L 344.703125 459.167969 C 346.519531 460.222656 348.257812 461.425781 349.90625 462.742188 L 346.867188 465.109375 L 357.394531 487.671875 C 358.839844 490.796875 360.433594 494.082031 362.277344 496.976562 L 367.921875 505.832031 L 367.894531 503.527344 C 368.800781 504.269531 369.722656 504.914062 370.683594 505.449219 C 373.242188 506.882812 376.238281 507.703125 379.589844 507.886719 L 380.488281 507.9375 L 380.46875 508.128906 L 381.746094 508.007812 L 382.757812 508.0625 L 382.757812 507.910156 L 384.09375 507.78125 C 387.65625 507.433594 391.609375 506.476562 395.910156 504.90625 L 396.75 504.582031 L 396.738281 504.726562 L 401.320312 502.71875 C 404.160156 501.472656 407.011719 500.035156 409.816406 498.453125 L 409.699219 498.90625 L 416.28125 494.472656 C 420.0625 491.921875 423.628906 489.121094 426.910156 486.152344 L 426.882812 486.867188 L 432.441406 480.726562 C 437.113281 475.5625 439.253906 471.070312 439.167969 466.585938 C 439.066406 461.523438 436.164062 457.113281 432.667969 452.28125 Z M 432.667969 452.28125 " style=" stroke:none;fill-rule:nonzero;fill:rgb(96.862745%,70.196078%,43.529412%);fill-opacity:1;" />
<path d="M 426.070312 5.140625 C 416.910156 5.082031 407.433594 5.050781 397.105469 5.039062 L 394.226562 5.039062 L 385.652344 211.539062 L 401.632812 188.820312 C 401.722656 188.6875 401.878906 188.601562 402.058594 188.597656 C 402.234375 188.597656 402.375 188.660156 402.480469 188.785156 L 422.976562 213.671875 L 429.144531 5.15625 Z M 426.070312 5.140625 " style=" stroke:none;fill-rule:nonzero;fill:rgb(92.941176%,42.745098%,40%);fill-opacity:1;" />
<path d="M 245.015625 50.867188 C 233.582031 47.746094 222.207031 46.164062 211.210938 46.164062 C 186.449219 46.164062 162.910156 53.84375 139.246094 69.644531 C 119.148438 83.078125 102.863281 100.644531 92.152344 120.453125 C 69.328125 162.699219 73.097656 217.566406 101.113281 250.921875 C 120.921875 274.507812 152.503906 288.964844 190.039062 291.632812 C 194.136719 291.925781 198.265625 292.070312 202.316406 292.070312 C 233.753906 292.070312 262.070312 283.542969 284.210938 267.40625 C 304.5 252.613281 319.980469 229.957031 327.796875 203.601562 C 335.609375 177.28125 335.09375 149.46875 326.355469 125.300781 C 313.429688 89.550781 282.261719 61.03125 245.015625 50.867188 Z M 269.636719 249.238281 C 251.601562 262.394531 228.503906 269.347656 202.84375 269.347656 C 199.507812 269.347656 196.140625 269.226562 192.835938 268.988281 C 162.230469 266.816406 136.484375 255.035156 120.339844 235.808594 C 108.816406 222.09375 102.132812 204.28125 101.019531 184.300781 C 99.960938 165.257812 104.234375 145.785156 113.054688 129.464844 C 121.789062 113.304688 135.066406 98.976562 151.449219 88.035156 C 170.769531 75.132812 189.941406 68.863281 210.054688 68.863281 C 219.019531 68.863281 228.316406 70.160156 237.6875 72.714844 C 268.042969 81 293.449219 104.25 303.996094 133.390625 C 318.808594 174.359375 304.039062 224.164062 269.636719 249.238281 Z M 269.636719 249.238281 " style=" stroke:none;fill-rule:nonzero;fill:rgb(74.901961%,78.039216%,84.705882%);fill-opacity:1;" />
<path d="M 149.789062 85.542969 C 132.984375 96.765625 119.371094 111.460938 110.410156 128.042969 C 101.332031 144.84375 96.933594 164.886719 98.027344 184.472656 C 99.175781 205.101562 106.097656 223.523438 118.039062 237.742188 C 134.710938 257.585938 161.199219 269.75 192.628906 271.984375 C 196.0625 272.230469 199.46875 272.351562 202.84375 272.351562 C 228.863281 272.351562 252.910156 265.148438 271.40625 251.660156 C 306.839844 225.824219 322.0625 174.542969 306.8125 132.375 C 295.945312 102.332031 269.761719 78.363281 238.472656 69.824219 C 207.347656 61.328125 178.339844 66.46875 149.789062 85.542969 Z M 300.164062 134.777344 C 306.992188 153.660156 307.382812 175.429688 301.261719 196.078125 C 295.148438 216.699219 283.0625 234.414062 267.242188 245.949219 C 247.691406 260.203125 221.367188 266.9375 193.128906 264.933594 C 163.628906 262.835938 138.882812 251.5625 123.453125 233.195312 C 101.652344 207.238281 98.785156 164.429688 116.628906 131.402344 C 125.042969 115.832031 137.867188 102.003906 153.714844 91.417969 C 172.1875 79.082031 190.832031 72.960938 210.160156 72.960938 C 218.824219 72.960938 227.628906 74.191406 236.609375 76.644531 C 265.714844 84.585938 290.066406 106.863281 300.164062 134.777344 Z M 300.164062 134.777344 " style=" stroke:none;fill-rule:nonzero;fill:rgb(0%,0%,0%);fill-opacity:1;" />
<path d="M 138.675781 68.785156 C 118.429688 82.304688 102.03125 100 91.246094 119.960938 C 80.339844 140.144531 75.054688 164.230469 76.371094 187.777344 C 77.75 212.511719 86.03125 234.578125 100.316406 251.589844 C 120.308594 275.390625 152.148438 289.976562 189.96875 292.667969 C 194.117188 292.964844 198.230469 293.109375 202.308594 293.109375 C 233.652344 293.109375 262.59375 284.449219 284.828125 268.242188 C 305.304688 253.308594 320.917969 230.460938 328.792969 203.902344 C 336.664062 177.351562 336.144531 149.3125 327.332031 124.945312 C 314.292969 88.882812 282.851562 60.113281 245.285156 49.859375 C 207.894531 39.65625 173.019531 45.84375 138.675781 68.785156 Z M 323.535156 126.320312 C 332.054688 149.882812 332.550781 177.027344 324.921875 202.753906 C 317.296875 228.46875 302.214844 250.566406 282.445312 264.976562 C 258.09375 282.734375 225.355469 291.140625 190.253906 288.640625 C 153.535156 286.027344 122.691406 271.949219 103.410156 248.992188 C 76.15625 216.542969 72.535156 163.085938 94.800781 121.882812 C 105.273438 102.5 121.21875 85.300781 140.917969 72.144531 C 174.234375 49.894531 208.023438 43.882812 244.222656 53.757812 C 280.542969 63.671875 310.933594 91.472656 323.535156 126.320312 Z M 323.535156 126.320312 " style=" stroke:none;fill-rule:nonzero;fill:rgb(0%,0%,0%);fill-opacity:1;" />
<path d="M 491.410156 55.621094 C 491.320312 52.503906 491.433594 49.191406 491.550781 45.683594 C 492.054688 30.734375 492.628906 13.789062 477.445312 5.195312 C 466.308594 -1.113281 453.640625 -0.253906 441.390625 0.574219 C 437.226562 0.851562 433.300781 1.117188 429.535156 1.09375 C 331.945312 0.382812 232.945312 2.820312 137.210938 5.175781 C 107.738281 5.898438 77.265625 6.648438 47.253906 7.296875 C 31.625 7.632812 14.582031 9.707031 6.671875 22.53125 C 2.257812 29.6875 2.207031 38.292969 2.164062 45.207031 L 0.0078125 396.722656 C -0.03125 403.007812 -0.0859375 411.621094 4.96875 418.164062 C 10.996094 425.972656 21.53125 427.667969 30.933594 428.644531 C 136.230469 439.574219 232.128906 439.996094 329.246094 439.457031 C 329.628906 439.457031 329.992188 439.378906 330.335938 439.261719 L 353.703125 489.402344 C 356.6875 495.804688 360.773438 504.570312 368.691406 508.996094 C 372.273438 511 376.410156 512 381.0625 512 C 385.90625 512 391.3125 510.914062 397.242188 508.746094 C 410.941406 503.738281 423.585938 495.59375 433.808594 485.195312 C 437.925781 481.011719 443.378906 474.519531 443.230469 466.503906 C 443.101562 459.773438 438.980469 454.070312 435.96875 449.902344 L 427.265625 437.863281 C 429.753906 438.113281 431.40625 438.265625 437 438.609375 C 441.195312 438.871094 445.523438 439.257812 449.707031 439.636719 C 455.101562 440.121094 460.683594 440.621094 466.148438 440.863281 C 466.308594 440.871094 466.46875 440.871094 466.628906 440.871094 C 475.433594 440.871094 484.265625 430.476562 485.789062 423.503906 C 486.585938 419.84375 486.613281 415.949219 486.636719 412.183594 C 486.648438 410.460938 486.660156 408.832031 486.742188 407.292969 C 487.027344 402.058594 487.304688 396.828125 487.570312 391.597656 C 488.628906 370.761719 489.546875 349.628906 490.296875 328.78125 C 491.863281 285.351562 492.773438 241.292969 493.007812 197.828125 C 493.261719 150.644531 492.722656 102.800781 491.410156 55.621094 Z M 397.105469 8.042969 C 406.765625 8.050781 416.417969 8.082031 426.054688 8.144531 L 420.21875 205.601562 L 404.792969 186.882812 C 404.089844 186.035156 403.058594 185.554688 401.929688 185.601562 C 400.824219 185.640625 399.804688 186.199219 399.171875 187.097656 L 389.070312 201.464844 Z M 10.5625 413.84375 C 7.265625 409.574219 7.03125 403.582031 7.074219 396.765625 L 9.230469 45.25 C 9.269531 38.902344 9.316406 31.710938 12.6875 26.242188 C 16.03125 20.820312 21.984375 17.875 28.921875 16.261719 C 24.660156 20.554688 21.289062 26.25 19.199219 32.914062 C 16.121094 42.738281 16.027344 53.019531 15.9375 62.964844 L 13.085938 383 C 12.964844 396.476562 14.089844 410.976562 22.152344 420.171875 C 17.398438 419.078125 13.203125 417.261719 10.5625 413.84375 Z M 31.664062 421.613281 C 31.019531 421.546875 30.371094 421.472656 29.726562 421.398438 C 18.394531 414.1875 16.988281 397.96875 17.125 383.035156 L 19.976562 63.003906 C 20.0625 53.351562 20.152344 43.375 23.050781 34.125 C 25.757812 25.492188 30.769531 18.699219 37.066406 14.945312 C 38.832031 14.765625 40.617188 14.636719 42.40625 14.542969 C 36.421875 20.226562 32.261719 27.628906 29.605469 37.246094 C 26.214844 49.523438 26.097656 62.191406 25.988281 74.441406 L 23.328125 363.050781 C 23.199219 377.101562 23.398438 389.734375 27.152344 402.007812 C 27.636719 403.582031 28.050781 405.0625 28.4375 406.464844 C 30.148438 412.605469 31.5625 417.671875 36.230469 422.074219 C 34.710938 421.917969 33.191406 421.769531 31.664062 421.613281 Z M 239.273438 432.332031 C 178.628906 431.730469 117.195312 429.601562 52.433594 423.644531 C 52.0625 423.203125 51.59375 422.835938 51.019531 422.613281 C 38.964844 417.917969 37.722656 413.457031 35.25 404.566406 C 34.84375 403.113281 34.414062 401.574219 33.914062 399.9375 C 30.453125 388.628906 30.273438 376.570312 30.398438 363.117188 L 33.054688 74.507812 C 33.164062 62.710938 33.273438 50.511719 36.421875 39.128906 C 39.691406 27.285156 45.207031 19.683594 54.296875 14.476562 C 54.4375 14.394531 54.554688 14.296875 54.679688 14.203125 C 82.339844 13.59375 110.285156 12.90625 137.382812 12.242188 C 175.589844 11.300781 214.320312 10.351562 253.265625 9.59375 L 254.703125 40.914062 C 252.753906 40.28125 250.789062 39.675781 248.804688 39.136719 C 208.058594 28.015625 170.066406 34.753906 132.664062 59.734375 C 126.925781 63.566406 121.417969 67.746094 116.1875 72.246094 C 108.332031 79.015625 101.230469 86.773438 94.023438 94.113281 C 86.699219 101.566406 81.6875 113.734375 77.546875 123.1875 C 68.46875 143.921875 63.570312 166.648438 64.835938 189.328125 C 66.34375 216.3125 75.386719 240.394531 90.992188 258.972656 C 114.84375 287.371094 152.484375 301.207031 188.667969 303.78125 C 193.171875 304.101562 197.640625 304.257812 202.070312 304.257812 C 216.855469 304.257812 231.148438 302.480469 244.574219 299.035156 L 238.671875 430.214844 C 238.636719 431 238.871094 431.726562 239.273438 432.332031 Z M 287.746094 271.453125 C 261.726562 290.421875 226.722656 299.398438 189.167969 296.726562 C 149.914062 293.933594 116.972656 278.910156 96.40625 254.425781 C 67.34375 219.824219 63.5 162.785156 87.269531 118.792969 C 98.464844 98.074219 115.519531 79.683594 136.589844 65.613281 C 161.167969 49.195312 185.980469 41.050781 211.710938 41.050781 C 223.25 41.050781 234.976562 42.6875 246.941406 45.953125 C 285.710938 56.535156 318.152344 86.210938 331.601562 123.402344 C 340.699219 148.550781 341.222656 177.539062 333.074219 205.023438 C 324.929688 232.488281 308.832031 256.078125 287.746094 271.453125 Z M 297.425781 282.640625 C 299.097656 285.515625 300.980469 288.003906 302.898438 290.46875 C 304.53125 292.570312 306.191406 294.65625 307.765625 296.945312 C 304.464844 297.640625 301.195312 298.308594 298.039062 299.722656 C 291.519531 302.644531 286.925781 307.5625 284.511719 313.90625 C 279.605469 305.964844 274.699219 298.023438 269.796875 290.078125 C 277.667969 286.4375 285.085938 282.140625 291.90625 277.167969 C 292.5625 276.691406 293.191406 276.179688 293.84375 275.695312 C 295.417969 277.320312 296.242188 280.609375 297.425781 282.640625 Z M 245.105469 432.382812 C 245.472656 431.855469 245.703125 431.222656 245.734375 430.535156 L 251.699219 297.867188 C 251.714844 297.582031 251.683594 297.304688 251.628906 297.03125 C 255.589844 295.8125 259.460938 294.433594 263.238281 292.914062 L 282.566406 324.207031 C 282.523438 325.941406 282.589844 327.726562 282.789062 329.574219 C 284.042969 341.121094 288.921875 352.046875 294.136719 362.296875 C 301.625 377.011719 308.316406 392.019531 315.277344 406.957031 C 317.929688 412.644531 320.582031 418.335938 323.234375 424.023438 C 323.542969 424.691406 326.480469 432.40625 327.136719 432.402344 C 299.777344 432.546875 272.511719 432.613281 245.105469 432.382812 Z M 429.238281 454.628906 C 430.339844 456.464844 431.429688 458.308594 432.507812 460.160156 C 434.96875 464.378906 435.984375 467.570312 433.859375 472.011719 C 432.058594 475.785156 429.921875 479.339844 427.308594 482.609375 C 422.109375 489.113281 415.351562 494.390625 407.714844 497.726562 C 398.238281 501.871094 387.5 502.992188 377.347656 501.0625 C 372.398438 500.121094 369.296875 499.113281 366.101562 495.292969 C 362.871094 491.429688 360.179688 487.320312 358.003906 482.761719 C 353.417969 473.144531 349.523438 463.289062 344.800781 453.738281 C 339.058594 442.121094 333.738281 430.277344 328.203125 418.5625 C 317.246094 395.375 306.28125 372.1875 295.425781 348.949219 C 290.671875 338.765625 286.78125 326.039062 292.523438 315.449219 C 296.230469 308.613281 304.820312 301.480469 312.859375 303.859375 C 328.640625 308.53125 338.542969 326.683594 347.777344 339.207031 C 375.796875 377.191406 404.9375 414.019531 429.238281 454.628906 Z M 445.578125 431.777344 C 444.886719 431.65625 444.210938 431.753906 443.613281 432.007812 C 441.550781 431.839844 439.480469 431.679688 437.429688 431.554688 C 431.667969 431.199219 430.207031 431.054688 427.550781 430.789062 C 426.175781 430.648438 424.476562 430.476562 421.746094 430.234375 L 339.242188 316.117188 C 333.921875 308.761719 326.488281 300.269531 316.472656 297.683594 C 316.382812 297.40625 316.265625 297.132812 316.097656 296.875 L 299.4375 271.15625 C 318.0625 255.046875 332.261719 232.625 339.851562 207.03125 C 348.425781 178.113281 347.855469 147.558594 338.25 120.996094 C 331.917969 103.488281 321.570312 87.527344 308.503906 74.292969 C 302.363281 68.078125 295.558594 61.429688 288.015625 57.109375 C 283.449219 54.492188 278.933594 51.796875 274.292969 49.316406 C 272.945312 48.597656 261.925781 44.089844 261.898438 43.492188 C 261.898438 43.488281 260.335938 9.453125 260.335938 9.453125 C 303.457031 8.636719 346.820312 8.078125 390.03125 8.042969 L 381.507812 213.195312 C 381.445312 214.761719 382.417969 216.183594 383.90625 216.6875 C 385.390625 217.191406 387.03125 216.65625 387.933594 215.375 L 402.285156 194.957031 L 420.742188 217.355469 C 421.429688 218.183594 422.433594 218.640625 423.472656 218.640625 C 423.851562 218.640625 424.238281 218.578125 424.617188 218.453125 C 426.007812 217.972656 426.960938 216.683594 427.003906 215.210938 L 433.128906 8.097656 C 436.03125 8.007812 438.976562 7.820312 441.867188 7.625 C 444.363281 7.453125 446.882812 7.289062 449.386719 7.183594 C 457.101562 12.808594 462.792969 22.324219 465.425781 34.050781 C 467.90625 45.085938 467.632812 56.769531 467.367188 68.066406 L 459.464844 404.167969 C 459.335938 409.652344 459.1875 415.863281 456.777344 420.828125 C 453.996094 426.554688 448.851562 432.328125 445.578125 431.777344 Z M 464.769531 433.707031 C 462.152344 433.566406 459.503906 433.378906 456.855469 433.160156 C 460.421875 429.320312 462.703125 424.808594 463.136719 423.917969 C 466.21875 417.570312 466.386719 410.539062 466.53125 404.335938 L 474.433594 68.234375 C 474.710938 56.511719 474.996094 44.386719 472.324219 32.5 C 470.078125 22.503906 465.796875 13.851562 459.992188 7.34375 C 464.121094 7.722656 468.09375 8.578125 471.765625 10.242188 C 478.152344 30.054688 477.898438 52.054688 477.671875 71.617188 L 474.335938 357.144531 C 474.050781 381.617188 473.703125 409.214844 464.769531 433.707031 Z M 485.9375 197.789062 C 485.703125 241.183594 484.792969 285.167969 483.230469 328.527344 C 482.480469 349.339844 481.566406 370.4375 480.507812 391.238281 C 480.242188 396.460938 479.96875 401.683594 479.683594 406.910156 C 479.589844 408.617188 479.578125 410.40625 479.566406 412.136719 C 479.542969 415.539062 479.519531 419.058594 478.878906 421.996094 C 478.007812 425.996094 473.425781 431.394531 469.269531 433.191406 C 477.777344 408.558594 478.09375 381.363281 478.375 357.195312 L 481.707031 71.667969 C 481.925781 53.199219 482.15625 32.597656 476.90625 13.386719 C 485.324219 20.488281 484.898438 33.15625 484.484375 45.445312 C 484.367188 48.90625 484.25 52.484375 484.339844 55.820312 C 485.65625 102.917969 486.191406 150.683594 485.9375 197.789062 Z M 485.9375 197.789062 " style=" stroke:none;fill-rule:nonzero;fill:rgb(0%,0%,0%);fill-opacity:1;" />
</g>
</svg>