<!-- Generated by IcoMoon.io -->
<svg version="1.1" xmlns="http://www.w3.org/2000/svg" width="448" height="448" viewBox="0 0 448 448">
<title></title>
<g id="icomoon-ignore">
</g>
<path d="M177.75 282l121-62.5-121-63.25v125.75zM224 66.5c94.25 0 156.75 4.5 156.75 4.5 8.75 1 28 1 45 19 0 0 13.75 13.5 17.75 44.5 4.75 36.25 4.5 72.5 4.5 72.5v34s0.25 36.25-4.5 72.5c-4 30.75-17.75 44.5-17.75 44.5-17 17.75-36.25 17.75-45 18.75 0 0-62.5 4.75-156.75 4.75v0c-116.5-1-152.25-4.5-152.25-4.5-10-1.75-32.5-1.25-49.5-19 0 0-13.75-13.75-17.75-44.5-4.75-36.25-4.5-72.5-4.5-72.5v-34s-0.25-36.25 4.5-72.5c4-31 17.75-44.5 17.75-44.5 17-18 36.25-18 45-19 0 0 62.5-4.5 156.75-4.5v0z"></path>
</svg>
